<mxfile host="app.diagrams.net" modified="2022-12-04T08:05:07.703Z" agent="5.0 (Windows NT 10.0; Win64; x64) AppleWebKit/537.36 (KHTML, like Gecko) Chrome/107.0.0.0 Safari/537.36 Edg/107.0.1418.62" version="20.6.0" etag="s9IKbIV4z-PE7fRVwQVY" type="github">
  <diagram id="RgmUwyOPMfRE8Srq0DPN" name="第 1 页">
    <mxGraphModel dx="1674" dy="954" grid="1" gridSize="10" guides="1" tooltips="1" connect="1" arrows="1" fold="1" page="1" pageScale="1" pageWidth="827" pageHeight="1169" math="0" shadow="0">
      <root>
        <mxCell id="0" />
        <mxCell id="1" parent="0" />
        <mxCell id="dLkzcMLy8K11lO7dRIdc-3" value="" style="edgeStyle=orthogonalEdgeStyle;rounded=0;orthogonalLoop=1;jettySize=auto;html=1;" edge="1" parent="1" source="dLkzcMLy8K11lO7dRIdc-1" target="dLkzcMLy8K11lO7dRIdc-2">
          <mxGeometry relative="1" as="geometry" />
        </mxCell>
        <mxCell id="dLkzcMLy8K11lO7dRIdc-1" value="输入网络架构，学习速率，最大批大小和终止条件" style="rounded=1;whiteSpace=wrap;html=1;" vertex="1" parent="1">
          <mxGeometry x="380" y="110" width="120" height="60" as="geometry" />
        </mxCell>
        <mxCell id="dLkzcMLy8K11lO7dRIdc-5" value="" style="edgeStyle=orthogonalEdgeStyle;rounded=0;orthogonalLoop=1;jettySize=auto;html=1;" edge="1" parent="1" source="dLkzcMLy8K11lO7dRIdc-2" target="dLkzcMLy8K11lO7dRIdc-4">
          <mxGeometry relative="1" as="geometry" />
        </mxCell>
        <mxCell id="dLkzcMLy8K11lO7dRIdc-2" value="初始化权重网络" style="whiteSpace=wrap;html=1;rounded=1;" vertex="1" parent="1">
          <mxGeometry x="380" y="250" width="120" height="60" as="geometry" />
        </mxCell>
        <mxCell id="dLkzcMLy8K11lO7dRIdc-7" value="" style="edgeStyle=orthogonalEdgeStyle;rounded=0;orthogonalLoop=1;jettySize=auto;html=1;" edge="1" parent="1" source="dLkzcMLy8K11lO7dRIdc-4" target="dLkzcMLy8K11lO7dRIdc-6">
          <mxGeometry relative="1" as="geometry" />
        </mxCell>
        <mxCell id="dLkzcMLy8K11lO7dRIdc-4" value="向前传播网络输出" style="whiteSpace=wrap;html=1;rounded=1;" vertex="1" parent="1">
          <mxGeometry x="380" y="390" width="120" height="60" as="geometry" />
        </mxCell>
        <mxCell id="dLkzcMLy8K11lO7dRIdc-9" value="" style="edgeStyle=orthogonalEdgeStyle;rounded=0;orthogonalLoop=1;jettySize=auto;html=1;" edge="1" parent="1" source="dLkzcMLy8K11lO7dRIdc-6" target="dLkzcMLy8K11lO7dRIdc-8">
          <mxGeometry relative="1" as="geometry" />
        </mxCell>
        <mxCell id="dLkzcMLy8K11lO7dRIdc-6" value="利用损失函数计算整体误差" style="whiteSpace=wrap;html=1;rounded=1;" vertex="1" parent="1">
          <mxGeometry x="380" y="530" width="120" height="60" as="geometry" />
        </mxCell>
        <mxCell id="dLkzcMLy8K11lO7dRIdc-12" value="" style="edgeStyle=orthogonalEdgeStyle;rounded=0;orthogonalLoop=1;jettySize=auto;html=1;" edge="1" parent="1" source="dLkzcMLy8K11lO7dRIdc-8" target="dLkzcMLy8K11lO7dRIdc-11">
          <mxGeometry relative="1" as="geometry" />
        </mxCell>
        <mxCell id="dLkzcMLy8K11lO7dRIdc-17" value="" style="edgeStyle=orthogonalEdgeStyle;rounded=0;orthogonalLoop=1;jettySize=auto;html=1;" edge="1" parent="1" source="dLkzcMLy8K11lO7dRIdc-8" target="dLkzcMLy8K11lO7dRIdc-16">
          <mxGeometry relative="1" as="geometry" />
        </mxCell>
        <mxCell id="dLkzcMLy8K11lO7dRIdc-8" value="误差小于终止条件" style="rhombus;whiteSpace=wrap;html=1;rounded=1;" vertex="1" parent="1">
          <mxGeometry x="350" y="660" width="180" height="80" as="geometry" />
        </mxCell>
        <mxCell id="dLkzcMLy8K11lO7dRIdc-14" value="" style="edgeStyle=orthogonalEdgeStyle;rounded=0;orthogonalLoop=1;jettySize=auto;html=1;" edge="1" parent="1" source="dLkzcMLy8K11lO7dRIdc-11" target="dLkzcMLy8K11lO7dRIdc-13">
          <mxGeometry relative="1" as="geometry" />
        </mxCell>
        <mxCell id="dLkzcMLy8K11lO7dRIdc-11" value="反向传播" style="whiteSpace=wrap;html=1;rounded=1;" vertex="1" parent="1">
          <mxGeometry x="130" y="670" width="120" height="60" as="geometry" />
        </mxCell>
        <mxCell id="dLkzcMLy8K11lO7dRIdc-13" value="更新权重" style="whiteSpace=wrap;html=1;rounded=1;" vertex="1" parent="1">
          <mxGeometry x="130" y="530" width="120" height="60" as="geometry" />
        </mxCell>
        <mxCell id="dLkzcMLy8K11lO7dRIdc-15" value="" style="endArrow=classic;html=1;rounded=0;exitX=0.5;exitY=0;exitDx=0;exitDy=0;" edge="1" parent="1" source="dLkzcMLy8K11lO7dRIdc-13">
          <mxGeometry width="50" height="50" relative="1" as="geometry">
            <mxPoint x="390" y="560" as="sourcePoint" />
            <mxPoint x="440" y="350" as="targetPoint" />
            <Array as="points">
              <mxPoint x="190" y="350" />
            </Array>
          </mxGeometry>
        </mxCell>
        <mxCell id="dLkzcMLy8K11lO7dRIdc-16" value="输出网络权重" style="whiteSpace=wrap;html=1;rounded=1;" vertex="1" parent="1">
          <mxGeometry x="380" y="830" width="120" height="60" as="geometry" />
        </mxCell>
        <mxCell id="dLkzcMLy8K11lO7dRIdc-18" value="否" style="rounded=1;whiteSpace=wrap;html=1;" vertex="1" parent="1">
          <mxGeometry x="290" y="670" width="50" height="30" as="geometry" />
        </mxCell>
        <mxCell id="dLkzcMLy8K11lO7dRIdc-19" value="是" style="rounded=1;whiteSpace=wrap;html=1;" vertex="1" parent="1">
          <mxGeometry x="450" y="770" width="60" height="30" as="geometry" />
        </mxCell>
      </root>
    </mxGraphModel>
  </diagram>
</mxfile>
